<svg xmlns="http://www.w3.org/2000/svg" width="100" height="100.001" viewBox="0 0 100 100.001">
    <path fill="#3d98c0" d="M35.221 100v-1.734l-.642-3.145-2.784-3.146-3.1-4.23-6-5.315-3-2.278v2.818l-1.925 5.966-3.533 4.121-4.068 3.037L5.352 98.7 0 100l1.713-3.037 3.64-8.026 1.071-6.507v-3.688L4.5 74.621l-1.818-6.4L0 54.99V41.866L.642 34.6l2.034-7.266 2.676-5.424 5.888-8.676 3.533-2.606 4.924-3.9 7.067-3.365L35.222 1.3l6.1-1.3h7.707l6.961.542 7.494 2.82L69.372 9l3.747.868 5.03.759 6 2.061 6.209 3.362 5.674 5.315 2.462 4.013c.057.3 1.394 7.284 1.5 7.913s-.527 6.338-.532 6.4l-.964 4.447-.749 3.037-2.149-1.512-3.747-2.169-3.43-2.17-4.282-1.084h-5.455l-3.747 1.084-1.818 1.3-.749 1.518v5.423l1.713 4.339 3.425 4.772 4.817 4.124 7.494 5.423 3.747 4.989 1.281 6.184v5.857L93.565 91l-1.285 4.122-1.927 3.146-.535-3.146-2.569-3.145-4.924-4.23-4.175-3.254-5.03-3.471-5.674-3.362-3.961-.976-.642 2.061 2.569 1.41 2.034 3.8.964 3.037V89.7l-1.927 4.013-3 3.8L59.847 100l1.07-2.494-1.071-2.82-2.146-4.12-4.5-4.121-3.525-2.495-4.5-3.8 1.605 3.8v3.037l-1.07 3.579-3.31 4.122-3.319 2.82zm31.26-81.129c-3.429 7.955-4.992 11.9-5.7 13.8a9.557 9.557 0 0 0-.722 2.25l4.71 1.952 4.71-3.362 4.921-2.274 4.282-.651H83.5l3.533.651h2.89l-.642-3.688-4.175-3.254L80.72 21.8l-5.03-1.627zm-21.553.885a5.014 5.014 0 0 0-1.987.407 5.083 5.083 0 0 0-1.622 1.108 5.212 5.212 0 0 0 0 7.312 5.058 5.058 0 0 0 7.218 0 5.212 5.212 0 0 0 0-7.312 5.084 5.084 0 0 0-1.622-1.108 5.013 5.013 0 0 0-1.987-.405z"/>
</svg>
